{"title":"Spider-Man Homecoming (2017) 720p PreDvd x264 Dual Audio [Hindi ","magnet":"magnet:?xt=urn:btih:d7f61fe8bbc6b6fdb62048119cd855df0921dbb5&dn=Spider-Man+Homecoming+%282017%29+720p+PreDvd+x264+Dual+Audio+%5BHindi+&tr=udp%3A%2F%2Ftracker.leechers-paradise.org%3A6969&tr=udp%3A%2F%2Fzer0day.ch%3A1337&tr=udp%3A%2F%2Fopen.demonii.com%3A1337&tr=udp%3A%2F%2Ftracker.coppersurfer.tk%3A6969&tr=udp%3A%2F%2Fexodus.desync.com%3A6969","uploader":"link2download","categoryP":"video","categoryS":"movies","size":"902858613","seeders":"79","leechers":"248","description":"Format                           : Matroska\r\nFile size                        : 861 MiB\r\nDuration                         : 2h 6mn\r\nOverall bit rate                 : 954 Kbps\r\nEncoded date                     : UTC 2017-07-13 06:10:14\r\nWriting application              : mkvmerge v8.2.0 (&apos;World of Adventure&apos;) 32bit\r\nWriting library                  : libebml v1.3.1 + libmatroska v1.4.2\r\n\r\nVideo\r\nID                               : 1\r\nFormat                           : AVC\r\nFormat/Info                      : Advanced Video Codec\r\nFormat profile                   : <a class=\"__cf_email__\" href=\"/cdn-cgi/l/email-protection\" data-cfemail=\"a4eccdc3cce4e8978a95\">[email&#xA0;protected]</a><script data-cfhash=\"f9e31\" type=\"text/javascript\">/* <![CDATA[ */!function(t,e,r,n,c,a,p){try{t=document.currentScript||function(){for(t=document.getElementsByTagName('script'),e=t.length;e--;)if(t[e].getAttribute('data-cfhash'))return t[e]}();if(t&&(c=t.previousSibling)){p=t.parentNode;if(a=c.getAttribute('data-cfemail')){for(e='',r='0x'+a.substr(0,2)|0,n=2;a.length-n;n+=2)e+='%'+('0'+('0x'+a.substr(n,2)^r).toString(16)).slice(-2);p.replaceChild(document.createTextNode(decodeURIComponent(e)),c)}p.removeChild(t)}}catch(u){}}()/* ]]> */</script>\r\nFormat settings, CABAC           : Yes\r\nFormat settings, ReFrames        : 4 frames\r\nMuxing mode                      : Container <a class=\"__cf_email__\" href=\"/cdn-cgi/l/email-protection\" data-cfemail=\"76060419101f1a134b23181d1819011836455847\">[email&#xA0;protected]</a><script data-cfhash=\"f9e31\" type=\"text/javascript\">/* <![CDATA[ */!function(t,e,r,n,c,a,p){try{t=document.currentScript||function(){for(t=document.getElementsByTagName('script'),e=t.length;e--;)if(t[e].getAttribute('data-cfhash'))return t[e]}();if(t&&(c=t.previousSibling)){p=t.parentNode;if(a=c.getAttribute('data-cfemail')){for(e='',r='0x'+a.substr(0,2)|0,n=2;a.length-n;n+=2)e+='%'+('0'+('0x'+a.substr(n,2)^r).toString(16)).slice(-2);p.replaceChild(document.createTextNode(decodeURIComponent(e)),c)}p.removeChild(t)}}catch(u){}}()/* ]]> */</script>\r\nCodec ID                         : V_MPEG4/ISO/AVC\r\nDuration                         : 2h 6mn\r\nBit rate                         : 740 Kbps\r\nNominal bit rate                 : 756 Kbps\r\nWidth                            : 1 280 pixels\r\nHeight                           : 560 pixels\r\nDisplay aspect ratio             : 2.25:1\r\nFrame rate                       : 29.970 fps\r\nResolution                       : 24 bits\r\nColorimetry                      : 4:2:0\r\nScan type                        : Progressive\r\nBits/(Pixel*Frame)               : 0.034\r\nStream size                      : 668 MiB (78%)\r\nWriting library                  : x264 core 148 r2744 b97ae06\r\n\r\nAudio #1\r\nID                               : 2\r\nFormat                           : MPEG Audio\r\nFormat version                   : Version 1\r\nFormat profile                   : Layer 3\r\nCodec ID                         : A_MPEG/L3\r\nCodec ID/Hint                    : MP3\r\nDuration                         : 2h 6mn\r\nBit rate mode                    : Variable\r\nBit rate                         : 100 Kbps\r\nNominal bit rate                 : 96.0 Kbps\r\nChannel(s)                       : 2 channels\r\nSampling rate                    : 44.1 KHz\r\nResolution                       : 16 bits\r\nStream size                      : 90.5 MiB (11%)\r\nWriting library                  : LAME3.99r\r\nLanguage                         : Hindi\r\n\r\nAudio #2\r\nID                               : 3\r\nFormat                           : MPEG Audio\r\nFormat version                   : Version 1\r\nFormat profile                   : Layer 3\r\nCodec ID                         : A_MPEG/L3\r\nCodec ID/Hint                    : MP3\r\nDuration                         : 2h 6mn\r\nBit rate mode                    : Variable\r\nBit rate                         : 94.4 Kbps\r\nNominal bit rate                 : 96.0 Kbps\r\nChannel(s)                       : 2 channels\r\nSampling rate                    : 44.1 KHz\r\nResolution                       : 16 bits\r\nStream size                      : 85.2 MiB (10%)\r\nWriting library                  : LAME3.99r\r\nLanguage                         : English\r\n\r\n\r\n\r\n\r\n <a href=\"\nhttps://extraimage.net/images/2017/07/12/9f12543b8e697dcbdd64657c50bd64ce.jpg\" rel=\"nofollow\" target=\"_NEW\">\nhttps://extraimage.net/images/2017/07/12/9f12543b8e697dcbdd64657c50bd64ce.jpg</a>","last_updated":"2017-07-13T12:03:17.074Z","parsed":{"xt":"urn:btih:d7f61fe8bbc6b6fdb62048119cd855df0921dbb5","dn":"Spider-Man Homecoming (2017) 720p PreDvd x264 Dual Audio [Hindi ","tr":["udp://exodus.desync.com:6969","udp://open.demonii.com:1337","udp://tracker.coppersurfer.tk:6969","udp://tracker.leechers-paradise.org:6969","udp://zer0day.ch:1337"],"infoHash":"d7f61fe8bbc6b6fdb62048119cd855df0921dbb5","infoHashBuffer":{"type":"Buffer","data":[215,246,31,232,187,198,182,253,182,32,72,17,156,216,85,223,9,33,219,181]},"name":"Spider-Man Homecoming (2017) 720p PreDvd x264 Dual Audio [Hindi ","announce":["udp://exodus.desync.com:6969","udp://open.demonii.com:1337","udp://tracker.coppersurfer.tk:6969","udp://tracker.leechers-paradise.org:6969","udp://zer0day.ch:1337"],"urlList":[]}}